# xmcd
#
# Track frame offsets: 
#        225
#        11965
#        22750
#        38180
#        49855
#        64075
#        76302
#        95505
#        112542
#        128667
#        148280
#        161072
#        172962
#        187780
#        200637
#
# Disc length: 2888 seconds
#
# Revision: 0
# Processed by: cddbd v1.5.2PL0 Copyright (c) Steve Scherf et al.
# Submitted via: ExactAudioCopy v0.95a5
#
DISCID=c00b450f
DTITLE=Tulaci - Zlate casy ceske country I.
DYEAR=1999
DGENRE=Country
TTITLE0=Tisic mil
TTITLE1=Ruze z papiru
TTITLE2=Niagara
TTITLE3=Tulacky rano
TTITLE4=Cervena reka
TTITLE5=Zelene plane
TTITLE6=Toronto
TTITLE7=Nahy dziny
TTITLE8=Uz konicek padi
TTITLE9=Dzinova laska
TTITLE10=Ruby
TTITLE11=Rodne udoli
TTITLE12=Ten siry proud
TTITLE13=Ruty suty
TTITLE14=Ruze prerie
EXTD=
EXTT0=
EXTT1=
EXTT2=
EXTT3=
EXTT4=
EXTT5=
EXTT6=
EXTT7=
EXTT8=
EXTT9=
EXTT10=
EXTT11=
EXTT12=
EXTT13=
EXTT14=
PLAYORDER=
